<svg xmlns="http://www.w3.org/2000/svg" width="1280" height="720" viewBox="0 0 1280 720">
  <rect width="1280" height="720" fill="#f4f7fb"/>
  <rect x="70" y="70" width="1140" height="580" rx="26" fill="#ffffff" stroke="#cad5e3" stroke-width="2"/>
  <text x="120" y="165" font-family="Inter, Arial, sans-serif" font-size="58" font-weight="700" fill="#162338">Physical AI Safety Agent</text>
  <text x="120" y="220" font-family="Inter, Arial, sans-serif" font-size="28" fill="#526173">Safety-first experiment copilot for physical-AI teams</text>
  <g font-family="Inter, Arial, sans-serif" font-size="22" font-weight="600">
    <rect x="120" y="310" width="220" height="92" rx="12" fill="#e8f1ff" stroke="#7da7e8"/>
    <text x="154" y="365" fill="#163b72">GPU0 Treatment</text>
    <rect x="120" y="440" width="220" height="92" rx="12" fill="#edf8ee" stroke="#80bd86"/>
    <text x="162" y="495" fill="#1f5a28">GPU1 Control</text>
    <rect x="520" y="375" width="240" height="92" rx="12" fill="#fff4de" stroke="#d8a84c"/>
    <text x="562" y="430" fill="#744d08">Research PC Eval</text>
    <rect x="930" y="375" width="210" height="92" rx="12" fill="#fdecec" stroke="#db7d7d"/>
    <text x="965" y="430" fill="#7b2020">Safety Gate</text>
  </g>
  <g stroke="#738195" stroke-width="5" fill="none" marker-end="url(#arrow)">
    <path d="M340 356 C430 356 440 404 520 404"/>
    <path d="M340 486 C430 486 440 438 520 438"/>
    <path d="M760 421 L930 421"/>
  </g>
  <defs>
    <marker id="arrow" markerWidth="12" markerHeight="12" refX="10" refY="6" orient="auto">
      <path d="M2,2 L10,6 L2,10 z" fill="#738195"/>
    </marker>
  </defs>
  <text x="120" y="600" font-family="Inter, Arial, sans-serif" font-size="24" fill="#526173">Controlled comparisons. Matched evidence. Human approval before hardware.</text>
</svg>
